<?xml version="1.0" encoding="utf-8"?>
<svg xmlns="http://www.w3.org/2000/svg">

  <symbol id="icon-google" viewBox="-0.5 0 48 48" version="1.1" xmlns="http://www.w3.org/2000/svg" xmlns:xlink="http://www.w3.org/1999/xlink" fill="#000000">
    <g id="SVGRepo_bgCarrier" stroke-width="0"></g><g id="SVGRepo_tracerCarrier" stroke-linecap="round" stroke-linejoin="round"></g><g id="SVGRepo_iconCarrier"> <title>Google-color</title> <desc>Created with Sketch.</desc> <defs> </defs> <g id="Icons" stroke="none" stroke-width="1" fill="none" fill-rule="evenodd"> <g id="Color-" transform="translate(-401.000000, -860.000000)"> <g id="Google" transform="translate(401.000000, 860.000000)"> <path d="M9.82727273,24 C9.82727273,22.4757333 10.0804318,21.0144 10.5322727,19.6437333 L2.62345455,13.6042667 C1.08206818,16.7338667 0.213636364,20.2602667 0.213636364,24 C0.213636364,27.7365333 1.081,31.2608 2.62025,34.3882667 L10.5247955,28.3370667 C10.0772273,26.9728 9.82727273,25.5168 9.82727273,24" id="Fill-1" fill="#FBBC05"> </path> <path d="M23.7136364,10.1333333 C27.025,10.1333333 30.0159091,11.3066667 32.3659091,13.2266667 L39.2022727,6.4 C35.0363636,2.77333333 29.6954545,0.533333333 23.7136364,0.533333333 C14.4268636,0.533333333 6.44540909,5.84426667 2.62345455,13.6042667 L10.5322727,19.6437333 C12.3545909,14.112 17.5491591,10.1333333 23.7136364,10.1333333" id="Fill-2" fill="#EB4335"> </path> <path d="M23.7136364,37.8666667 C17.5491591,37.8666667 12.3545909,33.888 10.5322727,28.3562667 L2.62345455,34.3946667 C6.44540909,42.1557333 14.4268636,47.4666667 23.7136364,47.4666667 C29.4455,47.4666667 34.9177955,45.4314667 39.0249545,41.6181333 L31.5177727,35.8144 C29.3995682,37.1488 26.7323182,37.8666667 23.7136364,37.8666667" id="Fill-3" fill="#34A853"> </path> <path d="M46.1454545,24 C46.1454545,22.6133333 45.9318182,21.12 45.6113636,19.7333333 L23.7136364,19.7333333 L23.7136364,28.8 L36.3181818,28.8 C35.6879545,31.8912 33.9724545,34.2677333 31.5177727,35.8144 L39.0249545,41.6181333 C43.3393409,37.6138667 46.1454545,31.6490667 46.1454545,24" id="Fill-4" fill="#4285F4"> </path> </g> </g> </g> </g>
  </symbol>
  <symbol id="icon-mail" viewBox="0 0 24 24" fill="currentColor" xmlns="http://www.w3.org/2000/svg">
    <g id="SVGRepo_bgCarrier" stroke-width="0"></g>
    <g id="SVGRepo_tracerCarrier" stroke-linecap="round" stroke-linejoin="round"></g>
    <g id="SVGRepo_iconCarrier"> 
      <path d="M21 8L17.4392 9.97822C15.454 11.0811 14.4614 11.6326 13.4102 11.8488C12.4798 12.0401 11.5202 12.0401 10.5898 11.8488C9.53864 11.6326 8.54603 11.0811 6.5608 9.97822L3 8M6.2 19H17.8C18.9201 19 19.4802 19 19.908 18.782C20.2843 18.5903 20.5903 18.2843 20.782 17.908C21 17.4802 21 16.9201 21 15.8V8.2C21 7.0799 21 6.51984 20.782 6.09202C20.5903 5.71569 20.2843 5.40973 19.908 5.21799C19.4802 5 18.9201 5 17.8 5H6.2C5.0799 5 4.51984 5 4.09202 5.21799C3.71569 5.40973 3.40973 5.71569 3.21799 6.09202C3 6.51984 3 7.07989 3 8.2V15.8C3 16.9201 3 17.4802 3.21799 17.908C3.40973 18.2843 3.71569 18.5903 4.09202 18.782C4.51984 19 5.07989 19 6.2 19Z" stroke="#000000" stroke-width="2" stroke-linecap="round" stroke-linejoin="round"></path> </g>
  </symbol>
</svg>